<?xml version="1.0" encoding="UTF-8"?>
<svg id="Layer_2" data-name="Layer 2" xmlns="http://www.w3.org/2000/svg" viewBox="0 0 668.57 631.95">
  <defs>
    <style>
      .cls-1 {
        fill: none;
        stroke: #231f20;
        stroke-miterlimit: 10;
      }
    </style>
  </defs>
  <path class="cls-1" d="M181.2,631.27c6.69,.46,29.79,1.24,50.61-14.61,19.15-14.57,24.74-34.34,27.13-42.78,9.27-32.76-2.63-63.7-3.65-66.26-1.78-4.46-5.27-12.14-8.35-24-2.53-9.72-7.04-27.08-1.04-30.78,2.42-1.49,6.08-.48,8.35,1.04,8.97,6.04,3.15,25.05,6.78,26.09,4.43,1.27,21.72-24.56,26.09-41.22,.43-1.66,1.66-6.71,5.74-8.87,2.95-1.56,7.59-1.71,9.39,.52,4.14,5.13-8.92,20.14-6.26,22.43,1.25,1.08,5.63-.96,8.35-4.17,4.02-4.75,1.68-8.86,5.22-14.09,3.3-4.87,9.78-7.88,12-6.26,2.73,1.99-.19,11.53-2.09,16.17-2.35,5.76-4.87,8.26-3.65,10.96,1.02,2.27,4.35,3.9,6.78,3.13,3.26-1.03,3.05-5.78,6.78-15.13,2.66-6.67,5.15-12.9,9.39-13.57,2.83-.44,6.13,1.64,7.83,4.17,7.6,11.35-14.68,35.44-10.96,38.61,2.23,1.9,13.89-3.66,17.74-13.04,1.73-4.21,1.3-7.77,4.17-9.39,3.14-1.77,8.6-.34,9.91,2.61,2.13,4.78-6.93,13.03-10.96,16.7-7.68,6.99-14.86,10.52-16.7,11.48-24.83,12.93-19.76,49.19-38.61,55.3-10.13,3.28-15-6.08-41.74-16.17-21.39-8.07-29.42-6.29-48.52-10.96-43.73-10.69-83.81-40.13-80.35-51.65,2.36-7.87,26.07-10.86,47.48-13.57,10.01-1.26,15.07-1.15,21.39-5.22,10.73-6.92,9.55-15.91,20.35-20.35,7.18-2.95,13.79-1.48,16.17-6.26,.84-1.69,1.18-4.19,0-5.74-2.5-3.28-10.75-.89-15.65,.52-11.31,3.27-16.06,7.92-19.3,5.74-1.82-1.22-2.8-4.34-2.09-6.78,3.34-11.48,43.86-7.48,44.35-13.04,.16-1.78-3.86-3.52-4.17-3.65-3.98-1.69-7.87-.28-12,1.04-7.38,2.37-20.05,6.43-21.39,4.17-.72-1.21,1.94-3.99,2.61-4.7,3.72-3.9,8.43-5.02,12-5.74,13.59-2.73,21.58-1.84,21.91-3.65,.23-1.25-3.35-2.93-5.22-3.65-6.24-2.4-12.09-1.19-15.13-.52-17.82,3.92-27.37,7.77-28.17,6.26-.6-1.11,3.89-4.59,4.7-5.22,8.5-6.59,16.78-6.86,16.7-8.87-.06-1.42-4.23-2.35-6.26-2.61-1.54-.19-4.96-.4-9.39,1.57-5.42,2.4-5.74,5.11-13.04,10.43-3.13,2.28-7.12,5.19-8.35,4.17-1.04-.87,.02-4.48,2.09-6.78,.29-.32,1.08-1.15,3.7-2.53,5.3-2.78,7.44-2.19,8.83-4.26,1.17-1.74,1.25-4.53,0-5.74-.51-.49-2.32-1.76-9.39,1.57-16.33,7.67-28.52,24.66-30.26,27.13-7.33,10.41-8.31,15.14-15.13,18.26-5.78,2.64-8.21,.78-14.09,3.13-11.69,4.67-21.41,19.74-17.74,30.26,2.06,5.89,8.67,11.34,13.04,9.91,2.64-.86,4.47-4.23,4.7-7.3,.49-6.56-6.53-9.05-9.91-17.74,0,0-2.49-6.39-1.04-15.13,2.76-16.72,23.96-16.02,51.13-41.74,16.41-15.54,24.61-23.3,26.61-28.17,.53-1.29,2.24-5.79,6.26-7.3,4.16-1.57,8.62,.88,9.91,1.57,17.26,9.17,37.5,11.76,54.78,20.87,29.16,15.38,60.31,31.8,82.96,33.91,12.86,1.2,32.87-1.04,43.3,0s24.26,0-.52-6.26-51.09-19.38-68.35-22.43c-30.52-5.41-46.02-8.2-57.91-12.52-23.91-8.69-22.97-13.41-41.22-17.22-8.23-1.72-20.76-3.33-22.96-10.43-.88-2.84,.23-5.5,.52-6.26,7.65-19.72,3.9-137.61,17.22-152.35,2.36-2.61,5.22-3.65,5.22-3.65,6.12-2.23,12.5,1.28,14.09,2.09,18.41,9.32,168.68,47.16,206.61,41.74,2.61-.37,11.51-1.93,17.22,3.13,5.08,4.49,5.22,12.08,5.22,15.65,0,29.46-9.82,72.46-13.04,87.13-6.58,29.89-9.86,44.84-9.91,46.43-.33,10.69,.69,22.07-6.26,27.13-5.02,3.65-11.82,2.28-15.13,1.57-37.97-8.21-106.4-32.41-126.26-39.13-14.7-4.97-28.71-12.15-43.83-15.65-13.46-3.12-24.71-4.21-31.83-13.57-2.59-3.4-4.82-8.15-5.74-18.26-1.95-21.37,5.58-26.78,9.39-52.7,4.26-28.96,6.38-43.44,5.74-53.22-.11-1.67-.51-6.72,2.61-10.43,3.38-4.02,9.19-4.46,13.04-4.7,9.6-.59,17.05,2.34,17.74,2.61,20.66,8.07,133.24,35.59,172.17,38.09,2.24,.14,7.66,.42,12,4.17,8.36,7.23,6.54,22,3.13,41.74-7.72,44.72-11.58,67.09-17.22,86.09-.52,1.76-5.11,17.13-3.65,33.39,.01,.15,.03,.29,.04,.41,1.38,14.87,4.15,23.2,4.66,26.72,1.67,11.47-13.98,17.41-28.17,35.48-10.13,12.89-5.26,13.81-22.96,52.7-15.93,35.02-25.18,45.9-32.35,45.39-.43-.03-5.69-.41-7.3-3.65-.96-1.93-.16-3.92,1.04-7.83,2.27-7.39,2.18-9.27,3.13-12,3.47-9.98,16.91-20.16,20.35-22.96,8.13-6.61,5.6-8.67,29.74-60,9.44-20.08,14.28-29.23,24.52-32.87,7-2.49,13.55-1.35,18.26-.52,19.93,3.48,21.62,16.19,36.52,18.26,17.5,2.43,25.57-13.64,37.04-7.83,4.56,2.31,3.69,5.05,17.22,19.83,7.36,8.04,9.17,8.93,10.43,9.39,10.7,3.91,27.17-5.68,29.22-12.52,33.39-111.65-8.35-149.22,7.3-188.87s-18.78-36.52-18.78-36.52c0,0-13.04,0-13.04,10.96s20.35,4.17,20.87,2.61,11.04-1.57,17-16.17-7.09-62.61-7.09-62.61c0,0-16.7-46.96-18.78-78.26S565.2,.18,565.2,.18"/>
</svg>