<?xml version="1.0" encoding="UTF-8"?>
<svg id="Layer_2" data-name="Layer 2" xmlns="http://www.w3.org/2000/svg" viewBox="0 0 668.57 510.77">
  <defs>
    <style>
      .cls-1 {
        fill: none;
        stroke: #231f20;
        stroke-miterlimit: 10;
      }
    </style>
  </defs>
  <path class="cls-1" d="M565.72,310.78c-5.18,4.92-18.52,16.44-29.22,12.52-1.26-.46-3.08-1.36-10.43-9.39-13.53-14.78-12.66-17.52-17.22-19.83-11.48-5.82-19.55,10.25-37.04,7.83-14.91-2.07-16.6-14.78-36.52-18.26-4.72-.82-11.26-1.97-18.26,.52-10.25,3.64-15.08,12.79-24.52,32.87-24.13,51.33-21.61,53.39-29.74,60-3.44,2.8-16.88,12.98-20.35,22.96-.95,2.73-.86,4.61-3.13,12-1.2,3.91-2,5.9-1.04,7.83,1.61,3.25,6.87,3.62,7.3,3.65,7.17,.51,16.41-10.38,32.35-45.39,17.7-38.89,12.83-39.8,22.96-52.7,14.19-18.06,29.84-24.01,28.17-35.48-.51-3.51-3.28-11.85-4.66-26.72-.01-.12-.02-.26-.04-.41-1.45-16.26,3.13-31.63,3.65-33.39,5.64-19,9.5-41.36,17.22-86.09,3.41-19.74,5.23-34.51-3.13-41.74-4.34-3.75-9.76-4.03-12-4.17-38.93-2.49-151.51-30.02-172.17-38.09-.69-.27-8.14-3.2-17.74-2.61-3.86,.24-9.66,.67-13.04,4.7-3.12,3.72-2.72,8.77-2.61,10.43,.65,9.78-1.48,24.26-5.74,53.22-3.81,25.91-11.34,31.32-9.39,52.7,.92,10.11,3.15,14.86,5.74,18.26,7.12,9.35,18.36,10.45,31.83,13.57,15.11,3.5,29.13,10.68,43.83,15.65,19.86,6.72,88.29,30.92,126.26,39.13,3.31,.72,10.11,2.09,15.13-1.57,6.95-5.06,5.93-16.44,6.26-27.13,.05-1.59,3.34-16.54,9.91-46.43,3.23-14.67,13.04-57.67,13.04-87.13,0-3.57-.14-11.16-5.22-15.65-5.71-5.06-14.61-3.5-17.22-3.13-37.92,5.42-188.2-32.41-206.61-41.74-1.59-.8-7.97-4.32-14.09-2.09,0,0-2.86,1.04-5.22,3.65-13.32,14.74-9.57,132.63-17.22,152.35-.29,.76-1.4,3.42-.52,6.26,2.19,7.1,14.73,8.72,22.96,10.43,18.25,3.81,17.3,8.52,41.22,17.22,11.89,4.32,27.39,7.12,57.91,12.52,17.26,3.06,63.38,10.98,68.35,22.43,.47,1.09,1.96,4.52,.52,6.26-1.53,1.84-5.54,.81-6.78,.52-10.43-2.44-23.67,.68-36.52-.52-22.64-2.12-53.79-18.54-82.96-33.91-17.29-9.11-37.53-11.7-54.78-20.87-1.3-.69-5.75-3.13-9.91-1.57-4.02,1.51-5.73,6.01-6.26,7.3-2,4.87-10.2,12.64-26.61,28.17-27.17,25.72-48.37,25.02-51.13,41.74-1.44,8.74,1.04,15.13,1.04,15.13,3.38,8.69,10.4,11.18,9.91,17.74-.23,3.07-2.05,6.44-4.7,7.3-4.38,1.43-10.98-4.02-13.04-9.91-3.67-10.52,6.05-25.59,17.74-30.26,5.88-2.35,8.31-.49,14.09-3.13,6.82-3.12,7.8-7.85,15.13-18.26,1.74-2.47,13.93-19.46,30.26-27.13,7.08-3.32,8.88-2.05,9.39-1.57,1.25,1.2,1.17,4,0,5.74-1.39,2.07-3.52,1.47-8.83,4.26-2.62,1.37-3.41,2.2-3.7,2.53-2.07,2.3-3.12,5.92-2.09,6.78,1.22,1.02,5.22-1.89,8.35-4.17,7.3-5.32,7.62-8.03,13.04-10.43,4.43-1.96,7.85-1.76,9.39-1.57,2.03,.26,6.2,1.19,6.26,2.61,.09,2.01-8.2,2.28-16.7,8.87-.81,.63-5.29,4.1-4.7,5.22,.81,1.5,10.35-2.34,28.17-6.26,3.04-.67,8.89-1.88,15.13,.52,1.87,.72,5.45,2.4,5.22,3.65-.33,1.81-8.32,.92-21.91,3.65-3.57,.72-8.28,1.84-12,5.74-.67,.71-3.33,3.49-2.61,4.7,1.34,2.26,14.01-1.81,21.39-4.17,4.13-1.32,8.02-2.74,12-1.04,.32,.13,4.33,1.88,4.17,3.65-.49,5.56-41.01,1.56-44.35,13.04-.71,2.44,.27,5.56,2.09,6.78,3.25,2.19,7.99-2.47,19.3-5.74,4.9-1.41,13.16-3.8,15.65-.52,1.18,1.55,.84,4.05,0,5.74-2.39,4.78-9,3.31-16.17,6.26-10.8,4.44-9.61,13.43-20.35,20.35-6.32,4.07-11.38,3.95-21.39,5.22-21.4,2.7-45.11,5.7-47.48,13.57-3.46,11.52,36.62,40.96,80.35,51.65,19.1,4.67,27.13,2.88,48.52,10.96,26.74,10.09,31.61,19.46,41.74,16.17,18.84-6.11,13.78-42.37,38.61-55.3,1.83-.95,9.01-4.48,16.7-11.48,4.03-3.67,13.09-11.91,10.96-16.7-1.31-2.95-6.78-4.38-9.91-2.61-2.88,1.62-2.44,5.18-4.17,9.39-3.85,9.38-15.51,14.94-17.74,13.04-3.72-3.17,18.56-27.25,10.96-38.61-1.69-2.53-5-4.61-7.83-4.17-4.25,.66-6.73,6.89-9.39,13.57-3.73,9.35-3.52,14.1-6.78,15.13-2.44,.77-5.76-.86-6.78-3.13-1.22-2.7,1.3-5.2,3.65-10.96,1.9-4.65,4.82-14.18,2.09-16.17-2.22-1.62-8.7,1.39-12,6.26-3.53,5.23-1.2,9.33-5.22,14.09-2.72,3.21-7.1,5.25-8.35,4.17-2.65-2.29,10.4-17.3,6.26-22.43-1.8-2.23-6.44-2.08-9.39-.52-4.08,2.16-5.3,7.21-5.74,8.87-4.37,16.66-21.65,42.49-26.09,41.22-3.63-1.04,2.19-20.05-6.78-26.09-2.26-1.52-5.93-2.53-8.35-1.04-5.99,3.7-1.48,21.06,1.04,30.78,3.08,11.86,6.57,19.54,8.35,24,1.02,2.56,12.93,33.5,3.65,66.26-2.39,8.44-7.99,28.21-27.13,42.78-20.82,15.85-43.92,15.07-50.61,14.61"/>
</svg>