<?xml version="1.0" encoding="UTF-8"?>
<svg id="Layer_2" data-name="Layer 2" xmlns="http://www.w3.org/2000/svg" viewBox="0 0 668.57 507.75">
  <defs>
    <style>
      .cls-1 {
        fill: none;
        stroke: #231f20;
        stroke-miterlimit: 10;
      }
    </style>
  </defs>
  <path class="cls-1" d="M565.72,310.78c-5.18,4.92-18.52,16.44-29.22,12.52-1.26-.46-3.08-1.36-10.43-9.39-13.53-14.78-12.66-17.52-17.22-19.83-11.48-5.82-19.55,10.25-37.04,7.83-14.91-2.07-16.6-14.78-36.52-18.26-4.72-.82-11.26-1.97-18.26,.52-10.25,3.64-15.08,12.79-24.52,32.87-24.13,51.33-21.61,53.39-29.74,60-3.44,2.8-16.88,12.98-20.35,22.96-.95,2.73-.86,4.61-3.13,12-1.2,3.91-2,5.9-1.04,7.83,1.61,3.25,6.87,3.62,7.3,3.65,7.17,.51,16.41-10.38,32.35-45.39,17.7-38.89,12.83-39.8,22.96-52.7,14.19-18.06,29.84-24.01,28.17-35.48-.51-3.51-3.28-11.85-4.66-26.72-.01-.12-.02-.26-.04-.41-1.45-16.26,3.13-31.63,3.65-33.39,5.64-19,9.5-41.36,17.22-86.09,3.41-19.74,5.23-34.51-3.13-41.74-4.34-3.75-9.76-4.03-12-4.17-38.93-2.49-151.51-30.02-172.17-38.09-.69-.27-8.14-3.2-17.74-2.61-3.86,.24-9.66,.67-13.04,4.7-3.12,3.72-2.72,8.77-2.61,10.43,.65,9.78-1.48,24.26-5.74,53.22-3.81,25.91-11.34,31.32-9.39,52.7,.92,10.11,3.15,14.86,5.74,18.26,7.12,9.35,18.36,10.45,31.83,13.57,15.11,3.5,29.13,10.68,43.83,15.65,19.86,6.72,88.29,30.92,126.26,39.13,3.31,.72,10.11,2.09,15.13-1.57,6.95-5.06,5.93-16.44,6.26-27.13,.05-1.59,3.34-16.54,9.91-46.43,3.23-14.67,13.04-57.67,13.04-87.13,0-3.57-.14-11.16-5.22-15.65-5.71-5.06-14.61-3.5-17.22-3.13-37.92,5.42-188.2-32.41-206.61-41.74-1.59-.8-7.97-4.32-14.09-2.09,0,0-2.86,1.04-5.22,3.65-13.32,14.74-9.57,132.63-17.22,152.35-.29,.76-1.4,3.42-.52,6.26,2.19,7.1,14.73,8.72,22.96,10.43,18.25,3.81,17.3,8.52,41.22,17.22,11.89,4.32,27.39,7.12,57.91,12.52,17.26,3.06,63.38,10.98,68.35,22.43,.47,1.09,1.96,4.52,.52,6.26-1.53,1.84-5.54,.81-6.78,.52-10.43-2.44-23.67,.68-36.52-.52-22.64-2.12-53.79-18.54-82.96-33.91-17.29-9.11-37.53-11.7-54.78-20.87-1.3-.69-5.75-3.13-9.91-1.57-4.02,1.51-5.73,6.01-6.26,7.3-2,4.87-10.2,12.64-26.61,28.17-27.17,25.72-48.37,25.02-51.13,41.74-1.44,8.74,1.04,15.13,1.04,15.13,3.38,8.69,10.4,11.18,9.91,17.74-.23,3.07-2.05,6.44-4.7,7.3-4.38,1.43-10.98-4.02-13.04-9.91-3.67-10.52,6.05-25.59,17.74-30.26,5.99-2.39,8.19-.33,14.09-3.13,9.6-4.56,13.32-14.56,15.13-18.26,11.95-24.4,44.51-29.7,58.43-26.61,3.04,.67,5.75,1.91,5.74,3.13-.03,2.52-11.68,2.17-14.61,8.87-.1,.23-1.57,3.7,0,5.74,2.36,3.07,9.42,.01,22.96-2.61,12.39-2.4,22.38-4.22,26.09,.52,1.31,1.67,1.94,4.3,1.04,6.26-1.99,4.37-10.4,3-21.39,4.17-15.68,1.68-33.74,8.24-33.91,14.61-.05,2.04,1.74,3.87,3.13,4.7,4.9,2.91,10.73-3,25.57-6.26,8.11-1.78,10.78-.98,12,.52,1.22,1.49,1.2,3.92,.52,5.74-2.33,6.2-12.11,4.43-20.35,10.43-6.6,4.81-7.58,11.24-9.91,15.65-12.53,23.71-74.06,8.35-78.26,20.35-3.52,10.04,32.92,39.68,75.65,50.09,23.36,5.69,30.92,1.33,51.65,10.96,19.14,8.89,27.61,19.54,42.26,17.22,12.2-1.94,20.43-11.56,23.48-15.13,13.56-15.86,5.51-26.87,18.26-38.61,8.62-7.93,17.16-7.38,22.96-18.26,.22-.42,4.91-9.37,2.09-12-2.01-1.87-7.19,.06-10.43,2.09-9.06,5.64-8.08,15.02-16.17,17.74-.8,.27-4.88,1.64-6.26,0-3-3.54,11.22-15.68,11.48-33.39,.02-1.72,.1-7.03-2.09-7.83-2.56-.93-6.84,4.78-8.35,6.78-5.75,7.66-5.31,12.65-11.48,18.78-1.6,1.6-3.69,3.67-4.7,3.13-3.23-1.74,11.11-27.11,5.22-31.83-2.46-1.97-8.28-.18-10.96,3.13-2.82,3.5-.61,6.8-2.61,12-2.92,7.62-12.02,11.84-13.57,10.43-2.18-1.98,10.29-15.37,6.26-20.87-1.34-1.83-4.34-2.56-6.78-2.09-9.12,1.77-7.7,19.9-22.43,39.65-1.26,1.68-10.01,13.27-14.09,11.48-1.94-.85-1.49-4.13-3.13-11.48-1.28-5.73-3.52-15.8-6.78-16.17-3.63-.42-9.82,11.03-10.43,22.96-.7,13.57,6.02,23.89,9.91,30.26,5.29,8.67,29.65,48.6,29.22,81.39-.13,9.41-2.37,23.9-14.09,41.74"/>
</svg>